<!-- icon666.com - MILLIONS vector ICONS FREE --><svg version="1.1" id="Capa_1" xmlns="http://www.w3.org/2000/svg" xmlns:xlink="http://www.w3.org/1999/xlink" x="0px" y="0px" viewBox="0 0 512 512" style="enable-background:new 0 0 512 512;" xml:space="preserve"><circle style="fill: rgb(87, 219, 157);" cx="255.998" cy="271.43" r="240.57" fill="#569FDB"></circle><g><path style="" d="M127.833,320.869c-16.104,0-35.757,0-61.621,0c-6.915,0-12.52-5.605-12.52-12.52 c0-6.914,5.605-12.52,12.52-12.52h7.756c6.915,0,12.52-5.606,12.52-12.52c0-6.915-5.606-12.52-12.52-12.52h-56.8 c-0.216,4.186-0.329,8.4-0.329,12.64c0,7.478,0.345,14.876,1.013,22.18c4.653,32.705,15.867,63.296,32.293,90.383h46.267 c6.915,0,12.52-5.606,12.52-12.52s-5.606-12.52-12.52-12.52h-12.79c-6.915,0-12.52-5.605-12.52-12.52 c0-6.915,5.605-12.52,12.52-12.52c9.07,0,34.997,0,44.212,0c6.915,0,12.52-5.606,12.52-12.52 C140.354,326.475,134.748,320.869,127.833,320.869z" fill="#77BBE8"></path><path style="" d="M483.331,192.564l-123.803-0.001c-6.913,0-12.519-5.606-12.519-12.519 c0-6.961,5.674-12.52,12.52-12.52h36.8c6.913,0,12.519-5.606,12.519-12.519s-5.605-12.52-12.519-12.52H291.625 c-6.913,0-12.519-5.607-12.519-12.519c0-6.958,5.671-12.52,12.52-12.52h80.165c6.913,0,12.519-5.606,12.519-12.519 c0-6.862-5.55-12.519-12.52-12.519h-38.06c-6.913,0-12.519-5.607-12.519-12.519c0-6.918,5.619-12.53,12.52-12.53h49.698 C429.564,96.228,465.203,140.299,483.331,192.564z" fill="#77BBE8"></path></g><path style="" d="M450.035,129.212c-0.789,1.53-1.48,3.118-2.054,4.759l-14.142,40.448 c-1.237,3.537-3.002,6.866-5.234,9.874c-36.836,49.492-34.736,47.112-37.302,49.849l-63.844,68.114 c-8.721,9.305-8.351,16.576-22.791,54.739c-3.806,10.677-12.281,19.03-23.011,22.681l-92.672,31.536 c-1.141,0.388-2.3,0.721-3.474,0.996L81.199,436.704C125.052,483.067,187.144,512,255.998,512 c132.865,0,240.574-107.709,240.574-240.574C496.571,218.216,479.284,169.05,450.035,129.212z" fill="#E1F8FC"></path><path style="" d="M253.898,511.972l79.626-46.441c13.74-8.013,23.066-21.865,25.325-37.61 c9.217-56.495,6.687-66.415,16.084-81.638l68.816-111.478c1.046-1.693,1.993-3.446,2.838-5.247l27.763-59.203 c-6.754-14.56-14.912-28.336-24.315-41.143l-0.001,0.002c-0.375,0.728-0.725,1.47-1.053,2.224c-0.04,0.092-0.079,0.186-0.118,0.278 c-0.316,0.74-0.614,1.49-0.881,2.254v0.001l-14.142,40.448c-0.618,1.768-1.369,3.485-2.244,5.135s-1.874,3.235-2.991,4.739 c-19.997,26.867-28.517,38.445-32.54,43.856c-0.406,0.547-0.767,1.031-1.089,1.461c-0.607,0.811-1.077,1.433-1.457,1.926 c-0.021,0.027-0.041,0.052-0.061,0.078c-0.374,0.484-0.66,0.843-0.906,1.139c-0.007,0.008-0.013,0.016-0.02,0.024 c-0.067,0.08-0.131,0.156-0.194,0.229c-0.008,0.009-0.016,0.019-0.024,0.028c-0.333,0.386-0.617,0.687-1.012,1.108l-11.758,12.544 l-52.086,55.57c-7.703,8.219-8.32,14.866-18.309,42.603c-0.518,1.439-1.062,2.936-1.633,4.492c-0.64,1.744-1.317,3.568-2.03,5.467 c-0.271,0.721-0.536,1.433-0.818,2.177c-0.589,1.651-1.301,3.238-2.104,4.769c-0.716,1.365-1.511,2.679-2.384,3.936 c-0.918,1.322-1.909,2.587-2.987,3.775c-1.393,1.535-2.913,2.952-4.544,4.236c-3.262,2.566-6.969,4.597-10.993,5.966l-92.672,31.536 c-0.38,0.129-0.765,0.243-1.15,0.36c-0.769,0.234-1.542,0.452-2.324,0.636L81.199,436.704 C124.605,482.594,185.884,511.389,253.898,511.972z" fill="#BAEAF7"></path><path style="" d="M205.808,294.232l-1.748-3.209c-0.556-1.022-1.606-1.69-2.768-1.731 c-0.839-0.03-1.566-0.08-2.226-0.155l-0.001-0.001c-13.6-1.548-23.807-12.78-24.344-26.748c-0.055-1.423-0.871-2.767-2.219-3.227 c-2.065-0.705-4.127,0.689-4.377,2.715l-11.723,94.351l-2.087,10.966l-26.277,60.352l33.618,12.694l32.198-55.181 c4.577-7.844,3.294-13.847,4.69-25.038l7.645-63.811C206.269,295.526,206.136,294.834,205.808,294.232z" fill="#757575"></path><path style="" d="M174.774,367.192l2.087-10.966l8.986-72.326c-6.535-4.884-10.786-12.641-11.127-21.512 c-0.055-1.423-0.871-2.767-2.219-3.227c-2.066-0.705-4.127,0.689-4.377,2.714l-11.723,94.351l-2.087,10.966l-26.277,60.352 l16.439,6.208L174.774,367.192z" fill="#666666"></path><path style="" d="M295.752,354.177c-0.79-13.248-2.389-17.917-7.28-22.808l-43.626-38.234 c-5.865-5.14-9.106-12.787-8.248-20.538c0.007-0.058,0.013-0.116,0.02-0.173c0.003-0.018,0.015-0.124,0.018-0.141l1.139-9.999 h-69.698c0,0-9.093,29.192,41.777,62.915l38.525,25.641c2.184,1.454,3.724,3.785,3.923,6.401c0.001,0.017,0.002,0.034,0.004,0.051 l4.449,62.282h43.494L295.752,354.177z" fill="#888889"></path><path style="" d="M275.786,417.524l-2.901-71.24c-0.183-2.482-1.502-4.741-3.574-6.12l-37.802-25.16 c-33.05-21.91-40.129-41.853-41.177-52.719h-22.256c0,0-9.093,29.192,41.777,62.915l38.525,25.641 c2.185,1.454,3.724,3.785,3.923,6.402c0.001,0.017,0.003,0.034,0.004,0.05l4.449,62.282h19.033L275.786,417.524L275.786,417.524z" fill="#757575"></path><path style="" d="M172.034,440.238h-9.077h-1.302l-33.618-12.694l-2.075,4.079l-10.453,20.552l-3.532,7.191 c-1.052,2.142-0.03,4.725,2.204,5.567l40.186,15.141c0.7,0.264,1.442,0.399,2.191,0.399c0.471,0,33.511,0,32.996,0 c0.991,0,1.794-0.803,1.794-1.794v-19.128C191.347,448.929,182.656,440.238,172.034,440.238z" fill="#CE9666"></path><path style="" d="M245.685,123.596c-6.323-7.948-15.329-12.954-25.362-14.098h-0.003 c-10.04-1.137-19.94,1.72-27.882,8.035c-7.947,6.323-12.954,15.331-14.098,25.364l-13.796,121.176 c-0.089,0.777-0.141,1.614-0.155,2.487c-0.014,0.911,0.348,1.787,1,2.422c0.619,0.602,1.447,0.938,2.308,0.938 c0.047,0,0.093-0.001,0.14-0.003l69.919-2.946c1.627-0.069,2.963-1.313,3.148-2.931l12.816-112.562 C254.861,141.446,252.008,131.544,245.685,123.596z" fill="#F95E5A"></path><path style="" d="M199.842,266.56c0.014-0.874,0.066-1.711,0.155-2.487l13.796-121.176 c1.144-10.033,6.151-19.041,14.098-25.364c1.863-1.481,3.837-2.765,5.892-3.858c-4.136-2.2-8.678-3.632-13.46-4.176h-0.003 c-10.04-1.137-19.94,1.72-27.882,8.035c-7.947,6.323-12.954,15.331-14.098,25.364l-13.796,121.176 c-0.089,0.777-0.141,1.614-0.155,2.487c-0.014,0.911,0.348,1.787,1,2.422c0.619,0.602,1.447,0.938,2.308,0.938 c0.046,0,0.093-0.001,0.139-0.003l32.637-1.376C200.06,267.968,199.831,267.277,199.842,266.56z" fill="#EA5050"></path><circle style="" cx="226.318" cy="55.909" r="39.27" fill="#F4C48B"></circle><path style="" d="M226.684,55.698c-7.224-12.512-6.772-27.343-0.119-39.06c-6.755-0.048-13.611,1.636-19.883,5.257 c-18.785,10.846-25.221,34.866-14.376,53.651c10.846,18.785,34.866,25.222,53.651,14.376c6.273-3.622,11.159-8.717,14.495-14.591 C246.978,75.234,233.909,68.211,226.684,55.698z" fill="#E4A970"></path><path style="" d="M307.629,417.523h-8.828h-33.434h-8.828v35.683c0,1.904,1.544,3.448,3.448,3.448h5.38 c5.856,0,58.746,0,58.585,0c1.359,0,2.46-1.101,2.46-2.46v-17.888C326.412,425.976,317.96,417.523,307.629,417.523z" fill="#CE9666"></path><g><path style="" d="M275.786,456.655v-39.131h-10.42h-8.828v35.684c0.001,1.904,1.544,3.448,3.448,3.448h5.38 L275.786,456.655L275.786,456.655z" fill="#BC8053"></path><path style="" d="M125.962,431.624l-10.453,20.552l-3.532,7.191c-1.052,2.143-0.03,4.725,2.204,5.567l14.401,5.425 l15.685-36.687l0,0l-16.23-6.128L125.962,431.624z" fill="#BC8053"></path></g><path style="" d="M225.542,107.973c-10.991-8.082-24.343-10.031-38.213-9.03l-2.213,19.984 c2.257-0.321,4.494-0.496,6.691-0.496c8.078,0,15.651,0.881,21.975,5.532c20.832,15.319,20.363,51.466-1.043,80.577 c-11.226,15.266-26.015,25.603-40.549,29.783l-2.289,20.667c21.311-3.782,43.086-17.284,58.827-38.691 C256.62,178.371,255.189,129.776,225.542,107.973z" fill="#F8A748"></path><path style="" d="M111.462,274.54c-5.758-1.613-9.707-7.223-9.028-13.349l12.961-116.928l-18.07-2.003 c-9.341-1.035-17.83,5.76-18.865,15.101l-10.568,95.337c-1.035,9.34,5.76,17.83,15.101,18.865l28.45,3.154L111.462,274.54z" fill="#888889"></path><path style="" d="M78.46,157.36l-3.014,27.19l35.053,3.886l4.896-44.173l-18.07-2.003 C87.984,141.225,79.495,148.02,78.46,157.36z" fill="#757575"></path><path style="" d="M111.532,177.806l-33.476-3.711c-5.863-0.65-11.141,3.575-11.791,9.438s3.575,11.141,9.438,11.791 l33.476,3.711L111.532,177.806z" fill="#666666"></path><path style="" d="M147.709,81.409l18.769,2.08l1.563-14.096c0.65-5.863-3.575-11.141-9.438-11.791 s-11.141,3.575-11.791,9.438l-1.576,14.221C146.054,81.274,146.878,81.317,147.709,81.409z" fill="#888889"></path><path style="" d="M157.902,279.867l-47.294-5.242c-6.807-0.754-11.759-6.941-11.004-13.748l19.172-172.96 c0.757-6.835,6.97-11.808,13.805-11.05l47.243,5.237c6.807,0.755,11.759,6.941,11.004,13.748L171.65,268.864 C170.896,275.669,164.709,280.621,157.902,279.867z" fill="#FCCB5B"></path><path style="" d="M156.177,79.482l-23.596-2.615c-6.835-0.758-13.047,4.214-13.805,11.05l-19.172,172.96 c-0.755,6.807,4.197,12.993,11.004,13.747l23.647,2.621L156.177,79.482z" fill="#F8A748"></path><path style="" d="M162.732,194.226l-38.08-4.221c-9.341-1.035-17.83,5.76-18.866,15.1l-6.182,55.771 c-0.755,6.807,4.197,12.993,11.004,13.747l47.295,5.242c6.807,0.755,12.993-4.197,13.748-11.004l6.182-55.771 C178.868,203.751,172.072,195.261,162.732,194.226z" fill="#FCCB5B"></path><g><path style="" d="M131.576,269.686l7.444-67.156c0.439-3.962,2.009-7.529,4.328-10.453l-18.697-2.072 c-9.341-1.036-17.83,5.759-18.865,15.1l-6.182,55.771c-0.755,6.807,4.197,12.993,11.004,13.748l22.032,2.442 C131.694,274.803,131.288,272.283,131.576,269.686z" fill="#F8A748"></path><path style="" d="M162.732,194.226l-38.08-4.221c-9.341-1.035-17.83,5.76-18.866,15.1l-2.032,18.333l72.046,7.986 l2.032-18.333C178.868,203.751,172.072,195.261,162.732,194.226z" fill="#F8A748"></path></g><g><path style="" d="M106.02,203.665c-0.094,0.474-0.18,0.951-0.234,1.44l-2.032,18.333l32.549,3.608l2.718-24.516 c0.439-3.962,2.009-7.529,4.328-10.453l-11.464-1.271l-7.232-0.801c-1.751-0.195-3.473-0.113-5.121,0.209 c-2.747,0.536-5.289,1.74-7.426,3.45c-0.648,0.519-1.245,1.098-1.813,1.705c-0.556,0.594-1.084,1.215-1.553,1.887 c-1.177,1.686-2.046,3.608-2.553,5.684C106.127,203.18,106.069,203.42,106.02,203.665z" fill="#EA8C2F"></path><path style="" d="M174.623,242.039l-72.046-7.986c-5.863-0.65-10.088-5.928-9.438-11.791s5.928-10.088,11.791-9.438 l72.046,7.986c5.863,0.65,10.088,5.928,9.438,11.791S180.486,242.689,174.623,242.039z" fill="#EA8C2F"></path></g><path style="" d="M130.537,226.407c0.497-4.485,3.299-8.144,7.089-9.959l-32.696-3.624 c-5.863-0.65-11.141,3.575-11.791,9.438s3.575,11.141,9.438,11.791l32.696,3.624C131.973,235.076,130.04,230.892,130.537,226.407z" fill="#E0781B"></path><path style="" d="M215.369,0.924c-22.272,4.772-36.458,26.695-31.686,48.967l80.653-17.282 C259.564,10.338,237.64-3.848,215.369,0.924z" fill="#F95E5A"></path><path style="" d="M231.735,0.728c-5.259-1.005-10.802-0.996-16.366,0.196c-22.272,4.772-36.458,26.695-31.686,48.967 l31.376-6.723C211.479,26.461,218.568,9.95,231.735,0.728z" fill="#EA5050"></path><path style="" d="M264.314,45.41l-75.366,16.149c-3.823,0.819-7.622-1.639-8.441-5.462l0,0 c-0.819-3.823,1.639-7.622,5.462-8.441l75.367-16.149c3.823-0.819,7.622,1.639,8.441,5.462l0,0 C270.595,40.792,268.137,44.591,264.314,45.41z" fill="#FCCB5B"></path><path style="" d="M209.726,49.836c-0.819-3.823,1.639-7.622,5.462-8.441l-29.22,6.261 c-3.823,0.819-6.281,4.617-5.462,8.441c0.819,3.823,4.618,6.281,8.441,5.462l29.22-6.261 C214.344,56.117,210.545,53.659,209.726,49.836z" fill="#F8A748"></path><path style="" d="M295.615,501.455c-0.178,0-0.357-0.004-0.538-0.014c-5.473-0.292-9.674-4.965-9.382-10.439 l17.114-328.088c0.291-5.473,4.947-9.704,10.438-9.381c5.473,0.292,9.674,4.965,9.382,10.438L305.516,492.06 C305.234,497.353,300.853,501.455,295.615,501.455z" fill="#EBE4DD"></path><path style="" d="M214.974,242.309c-4.126,0-8.173-1.355-11.495-3.911c-4.25-3.27-6.908-8.198-7.303-13.547 l-6.62-89.363c-0.769-10.382,7.024-19.421,17.406-20.19c10.358-0.789,19.421,7.022,20.191,17.406l5.063,68.346l73.667-13.803 c10.219-1.934,20.08,4.822,22,15.055c1.917,10.232-4.824,20.081-15.057,22l-94.38,17.684 C217.292,242.203,216.13,242.309,214.974,242.309z" fill="#EA5050"></path><path style="" d="M221.448,238.398c-4.25-3.27-6.908-8.198-7.303-13.547l-6.62-89.363 c-0.565-7.63,3.503-14.521,9.816-17.951c-3.074-1.675-6.638-2.524-10.379-2.24c-10.382,0.769-18.175,9.808-17.406,20.19l6.62,89.363 c0.395,5.349,3.053,10.277,7.303,13.547c3.322,2.555,7.369,3.911,11.495,3.911c1.156,0,2.318-0.106,3.472-0.323l6.882-1.289 C223.96,240.092,222.655,239.327,221.448,238.398z" fill="#D84545"></path><path style="" d="M299.959,229.344l32.308-5.616c9.758-1.696,16.354-11.067,14.658-20.825l-1.235-7.104 c-1.696-9.758-11.067-16.354-20.825-14.658l-32.308,5.615c-1.158,0.201-1.934,1.303-1.733,2.462l6.673,38.392 C297.699,228.77,298.801,229.546,299.959,229.344z" fill="#FCCB5B"></path><path style="" d="M345.751,196.145c-3.08,3.095-7.092,5.313-11.696,6.114l-39.241,6.82 c-0.179,0.031-0.357,0.042-0.532,0.036l3.215,18.496c0.201,1.158,1.303,1.934,2.462,1.733l32.308-5.615 c9.758-1.696,16.354-11.068,14.658-20.825L345.751,196.145z" fill="#F8A748"></path><path style="" d="M281.797,445.766c-4.327-1.283-7.36-5.416-7.076-10.115c0.332-5.469,5.035-9.637,10.507-9.306 l27.711,1.677c5.47,0.332,9.637,5.035,9.307,10.506c-0.332,5.47-5.035,9.637-10.507,9.306l-27.711-1.677 C283.256,446.111,282.508,445.977,281.797,445.766z" fill="#D8D8D8"></path><path style="" d="M314.739,217.605h-18.658c-6.915,0-12.52,5.605-12.52,12.52s5.605,12.52,12.52,12.52h18.658 c6.915,0,12.52-5.605,12.52-12.52S321.654,217.605,314.739,217.605z" fill="#77BBE8"></path></svg>