<!-- icon666.com - MILLIONS vector ICONS FREE --><svg viewBox="0 0 60 60" xmlns="http://www.w3.org/2000/svg"><g id="025---Travel-Around-The-World"><path id="Shape" d="m32 3c0 1.65685425 1.3431458 3 3 3s3-1.34314575 3-3-1.3431458-3-3-3-3 1.34314575-3 3zm4 0c0 .55228475-.4477153 1-1 1s-1-.44771525-1-1 .4477153-1 1-1 1 .44771525 1 1z"></path><path id="Shape" d="m2.012 60h55.975c.5552501.0024087 1.0867122-.2252064 1.4680971-.6287583.3813849-.4035518.5786438-.9470124.5449029-1.5012417-.8442157-11.5358752-8.2324889-21.5640951-19-25.789v-13.081c1.6568542 0 3-1.3431458 3-3s-1.3431458-3-3-3v-3c0-.55228475-.4477153-1-1-1s-1 .44771525-1 1v3.032l-1.448.024c-1.0488834-1.7321829-2.2240698-3.3846635-3.516-4.944-1.072846-1.14800514-2.7782089-1.44258268-4.174-.721-.3459231-.65838593-.9266449-1.16272512-1.627-1.413l-1.88-.67c-.7497415-.26842466-1.5754441-.2277433-2.2951687.11308014-.7197246.34082345-1.274409.95382027-1.5418313 1.70391986l-.526 1.482-.675-.225c-.5246705-.17507425-1.0919257.10832951-1.267.63300001-.1750742.5246705.1083295 1.09192569.633 1.26699999l.639.214-.868 2.447c-1.4679345-.0108956-2.7281493 1.0420744-2.9783656 2.4885675s.5830675 2.8615992 1.9693656 3.3444325c3.714 1.322 4.2 1.655 5.289 1.454l-.683 3.407c-.082.387.119.037-4.363 5.451-.6816564.8198987-.872408 1.9418996-.5 2.941-.7906667.304-1.5636667.6373333-2.319 1-.2163502.0231915-.418912.117439-.576.268-9.37322397 4.7563014-15.55827974 14.0874271-16.288 24.573-.03397174.5532613.16238494 1.0959378.54251522 1.4993645.38013027.4034268.91018244.6316775 1.46448478.6306355zm55.975-2h-18.951c.249-3.551 1.964-2.956 1.964-7 0-3.191-2.916-4.281-6.147-4.091-.6637814.0544577-1.3319984.0038352-1.98-.15-1.292-.337-2.885-1.045-3.13-2.506-.0859854-1.3900477.6137692-2.7111627 1.812-3.421 2.644-1.762 3.257-5.362 3.4-6.995.5772035-.2038967 1.076868-.5819645 1.43-1.082 11.9538149 2.7735543 20.7097613 13.0061192 21.602 25.245zm-31.3-27.816c2.66-3.058 3.176-3.384 3.477-4.881.595.643.837.823.837 1.3v3.407c-1.4406952-.0453728-2.8827857.0134471-4.315.176zm12.313 1.205c-.656-.2-1.324-.38-2-.541v-5.608c-.0033732-1.0600523-.4248994-2.0759555-1.173-2.827l-3.19-3.19c-.2857315-.2809328-.3748376-.7059608-.226-1.078l.469-1.2.436.545c.7537508.9569191 1.9058785 1.5138055 3.124 1.51h2.56zm-6.411-21.9c1.2064387 1.4811102 2.309066 3.0438339 3.3 4.677.3762826.5207515.9785366.8306095 1.621.834h3.49c.5522847 0 1 .4477153 1 1s-.4477153 1-1 1h-4.56c-.6080257.0020452-1.1831029-.276087-1.559-.754l-2.3-2.871c-.3477334-.4220405-.9699858-.4864927-1.396838-.1446829-.4268521.3418099-.4999817.9631022-.164162 1.3946829l.416.519-.889 2.271c-.4355948 1.1125086-.1710013 2.3773753.674 3.222l3.19 3.19c.3747536.375054.5864094.8828123.589 1.413v5.64c.0264155.5180201-.3211655.9809003-.826 1.1-.29033.0513034-.5885036-.0281248-.8148386-.2170586-.226335-.1889339-.3577628-.4681167-.3591614-.7629414v-4.39c.0021834-.7368897-.2669214-1.4488073-.756-2-.847-.96-1.768-1.806-4.988-5.405-.2288625-.2533339-.3105539-.6069517-.216-.935.042-.155 2.552-7.124 2.91-8.169.1693186-.52925985.6050045-.9301301 1.1465031-1.05488612.5414986-.12475603 1.1086666.04506643 1.4924969.44688612zm-8.189-1.689c.0902334-.24995565.2762467-.45371581.5169683-.56629022.2407216-.1125744.5163519-.12470371.7660317-.03370978l1.879.67c.2483226.08900584.4510816.27306924.5636201.5116509.1125385.23858167.125626.51211278.0363799.7603491l-.489 1.374-3.79-1.267zm-.527 10.433-3.759-1.34c-.5227375-.1836347-.7976346-.7562625-.614-1.279.1836347-.5227375.7562625-.7976347 1.279-.614 2.1.777 2.077.729 2.221.729.4873731.0005894.9041862-.3502565.9867543-.830585.082568-.4803284-.1931607-.9502217-.6527543-1.112415l-.94-.334.826-2.325 3.788 1.266s-1.868 5.249-1.877 5.278c-.2084355.4857017-.7560842.7285682-1.256.557zm-2.644 12.126c4.5-5.44 4.566-5.3 4.781-6.322l.533-2.658 1.947 2.106c-.267 1.324-.306 1.933-.764 2.459l-4.126 4.748c-.849.184-1.683.409-2.516.668-.1392966-.334959-.0836177-.7193353.145-1.001zm-4.469 4.959c2.710701 3.2270076 2.5080328 7.9899275-.467 10.975-3.869 3.87-8.683 2.169-11.21.812 2.6084256-5.0211754 6.6805016-9.1316112 11.677-11.787zm-12.533 13.591c4.679 2.446 9.7 2.58 13.48-1.2 5.141-5.141 2.348-10.929.843-13.26 3.9682445-1.7884687 8.3018306-2.6175026 12.65-2.42.2878331.8245853.9294287 1.477186 1.749 1.779-.154 1.567-.757 4.2-2.5 5.362-1.8591467 1.1404767-2.898963 3.2465518-2.674 5.416.51 3.038 4.117 4.5 7.2 4.322 1.2336429-.1940489 2.4951465.0829536 3.534.776.346958.3465825.5261474.8268538.491 1.316 0 3.274-1.723 2.846-1.971 7.007h-35.029c.22356566-3.1366156.97653828-6.2127471 2.227-9.098z"></path></g></svg>