<!-- icon666.com - MILLIONS vector ICONS FREE --><svg id="Capa_1" enable-background="new 0 0 512 512" viewBox="0 0 512 512" xmlns="http://www.w3.org/2000/svg"><path d="m502 492h-57.74l-26.154-136h83.894c3.466 0 6.685-1.795 8.507-4.743 1.821-2.947 1.987-6.629.438-9.729l-37.764-75.528h28.819c3.709 0 7.112-2.053 8.844-5.332s1.505-7.248-.587-10.31l-123-180c-1.865-2.729-4.956-4.358-8.257-4.358-.044 0-.09 0-.135.001-3.35.045-6.455 1.765-8.271 4.581l-31.79 49.318-74.401-115.322c-1.841-2.853-5.007-4.578-8.403-4.578s-6.562 1.725-8.402 4.578l-74.402 115.323-31.79-49.319c-1.815-2.816-4.92-4.536-8.271-4.581-3.352-.086-6.5 1.591-8.391 4.357l-56.943 83.332c-3.116 4.56-1.945 10.782 2.614 13.898 4.586 3.131 10.799 1.921 13.898-2.615l48.443-70.893 28.536 44.27-33.696 52.229c-1.984 3.076-2.129 6.991-.377 10.206s5.12 5.215 8.781 5.215h28.82l-37.764 75.528c-1.55 3.1-1.384 6.781.438 9.729s5.041 4.743 8.506 4.743h33.897l-66.667 40h-77.05l37.764-75.528c1.55-3.1 1.384-6.781-.438-9.729-1.821-2.948-5.04-4.743-8.506-4.743h-26.055l4.616-6.756c3.116-4.56 1.945-10.782-2.614-13.898-4.559-3.113-10.782-1.944-13.898 2.615l-15.305 22.398c-2.092 3.062-2.318 7.03-.587 10.31 1.731 3.278 5.135 5.331 8.843 5.331h28.82l-37.764 75.528c-1.55 3.1-1.384 6.781.438 9.729 1.821 2.948 5.04 4.743 8.506 4.743h83.893l-26.153 136h-57.74c-5.523 0-10 4.478-10 10s4.477 10 10 10h492c5.522 0 10-4.478 10-10s-4.478-10-10-10zm-122.757-397.92 103.812 151.92h-26.055c-3.466 0-6.685 1.795-8.507 4.743-1.821 2.947-1.987 6.629-.438 9.729l37.764 75.528h-77.05l-66.667-40h33.898c3.466 0 6.685-1.795 8.507-4.743 1.821-2.947 1.987-6.629.438-9.729l-37.764-75.528h28.819c3.661 0 7.029-2 8.781-5.215 1.751-3.215 1.606-7.13-.378-10.206l-33.696-52.229zm-227.063 181.92 37.764-75.528c1.55-3.1 1.384-6.781-.438-9.729-1.821-2.948-5.04-4.743-8.506-4.743h-26.649l101.649-157.555 101.648 157.555h-26.648c-3.466 0-6.685 1.795-8.507 4.743-1.821 2.947-1.987 6.629-.438 9.729l37.764 75.528h-51.05l-47.625-28.575c-3.166-1.9-7.123-1.9-10.289 0l-47.625 28.575zm-37.204 76.276 141.024-84.614 141.023 84.614 26.87 139.724h-97.893v-116c0-5.522-4.478-10-10-10h-120c-5.523 0-10 4.478-10 10v116h-97.893zm191.024 33.724v91.857l-40-40v-51.857zm-57.071 63.071 42.928 42.929h-85.857v-106h40v56c0 2.652 1.054 5.195 2.929 7.071z"></path><circle cx="50" cy="196" r="10"></circle></svg>