<!-- icon666.com - MILLIONS vector ICONS FREE --><svg clip-rule="evenodd" fill-rule="evenodd" image-rendering="optimizeQuality" shape-rendering="geometricPrecision" text-rendering="geometricPrecision" viewBox="0 0 7197 7197" xmlns="http://www.w3.org/2000/svg"><symbol id="Symbol1" viewBox="3459 3481 286 228"><path d="m3678 3490 58 217" style="stroke-width:17.64;fill:none;shape-rendering:geometricPrecision;text-rendering:geometricPrecision;image-rendering:optimizeQuality;clip-rule:evenodd" stroke="#373435"></path><path d="m3678 3490-217 58" style="stroke-width:17.64;fill:none;shape-rendering:geometricPrecision;text-rendering:geometricPrecision;image-rendering:optimizeQuality;clip-rule:evenodd" stroke="#373435"></path></symbol><g id="Layer_x0020_1"><circle cx="3598" cy="3598" fill="#aadde3" r="3598"></circle><path d="m2472 4854h-79-78c-251 0-456 206-456 456v456h1072v-438c-2-7-3-14-3-22 0-14 0-28 1-42-23-229-219-410-457-410zm370-3247c441 0 799 358 799 796 0 440-358 799-799 799-247 0-467-112-613-288-1-1-3-2-4-3-11-9-19-20-23-31-98-134-156-299-156-477 0-441 358-796 796-796zm-957 1771h3427v-1947h-3427zm2134-1043h852c37 0 67 30 67 68 0 37-30 67-67 67h-852c-38 0-68-30-68-67 0-38 30-68 68-68zm0 695h852c37 0 67 30 67 68 0 37-30 67-67 67h-852c-38 0-68-30-68-67 0-38 30-68 68-68zm852-1255h-852c-38 0-68-30-68-68 0-37 30-67 68-67h852c37 0 67 30 67 67 0 38-30 68-67 68zm-2037 743c217 0 423 87 573 242 66-103 104-226 104-357 0-367-303-666-669-666-367 0-666 299-666 666 0 127 36 246 98 348 149-149 350-233 560-233zm329-366c0 176-146 318-321 318-176 0-318-142-318-318s142-321 318-321c175 0 321 145 321 321zm166 709c-126-136-302-212-491-212-184 0-358 74-484 209 122 131 296 213 488 213s365-80 487-210zm-674-709c0 105 86 187 187 187 108 0 190-82 190-187s-86-190-190-190c-105 0-187 85-187 190zm332 2887c71-139 196-245 347-293-67-66-108-158-108-258 0-6 1-12 1-18-45-15-92-23-143-23h-65s-1 0-2 0-1 0-2 0h-88c-59 0-117 9-168 30v11c0 102-42 194-110 261 148 49 269 154 338 290zm1817-790c-131 0-240 108-240 239 0 116 86 212 197 231h85c110-19 193-115 193-231 0-135-105-239-235-239zm-815-172c0 130 104 239 235 239s239-109 239-239c0-131-104-236-239-236-131 0-235 105-235 236zm-1218 0c0 130 104 239 235 239s235-109 235-239c4-131-104-236-235-236s-235 105-235 236zm-142 411c0-135-101-239-236-239-131 0-235 104-235 239 0 116 82 212 193 231h85c110-19 193-115 193-231zm1010 231c111-19 197-115 197-231 0-12-1-23-3-33-1-5-2-9-2-14-21-111-119-192-235-192-130 0-235 104-235 239 0 116 83 212 193 231zm555 320c71-139 196-245 347-293-66-66-107-158-107-258 0-6 0-12 0-18-44-15-92-23-142-23h-66s-1 0-2 0c0 0-1 0-2 0h-87c-60 0-118 9-169 30v11c0 102-42 194-110 261 148 49 269 154 338 290zm531-185c-250 0-456 206-456 456v456h1069v-456c0-250-206-456-456-456h-78zm-1207-4c-250 0-456 206-456 456 0 8-1 15-4 22v434h1073v-456c0-250-206-456-456-456h-25c-18 3-35 4-54 4-17 0-35-1-52-4z" fill="#52abb3" style="fill: rgb(120, 179, 81);"></path></g></svg>