<!-- icon666.com - MILLIONS vector ICONS FREE --><svg version="1.1" id="Layer_1" xmlns="http://www.w3.org/2000/svg" xmlns:xlink="http://www.w3.org/1999/xlink" x="0px" y="0px" viewBox="0 0 512.001 512.001" style="enable-background:new 0 0 512.001 512.001;" xml:space="preserve"><g><g><path d="M481.6,171.895c1.533-12.38,0.24-25.166-4.126-37.311c-0.935-2.615-2.48-5.039-4.458-6.992 c-1.964-1.951-4.389-3.473-7.024-4.407c-5.221-1.84-10.559-3.128-15.933-3.883c-6.246-7.921-13.013-15.519-20.306-22.736 c-9.556-9.458-19.774-18.018-30.529-25.682c-1.596-29.487-19.635-56.301-46.892-69.118c-5.025-2.36-11.177-2.346-16.153,0.003 c-13.53,6.361-24.769,16.185-32.875,28.06c-15.425-2.965-31.245-4.507-47.307-4.507c-65.631,0-127.339,25.302-173.755,71.244 c-46.437,45.964-72.011,107.082-72.011,172.096s25.574,126.131,72.012,172.095c46.416,45.943,108.124,71.245,173.755,71.245 c65.633,0,127.341-25.302,173.755-71.245c46.438-45.964,72.012-107.081,72.012-172.095 C501.768,234.814,494.801,202.039,481.6,171.895z M418.73,107.706c3.696,3.659,7.229,7.435,10.636,11.296 c-16.351,1.794-32.043,8.382-44.708,19.257c-1.861-3.251-3.793-6.462-5.79-9.632c9.768-11.031,16.467-24.557,19.159-39.106 C405.233,95.13,412.148,101.192,418.73,107.706z M342.862,15.948c0.426-0.201,0.91-0.307,1.4-0.307c0.495,0,0.97,0.106,1.407,0.31 c23.091,10.859,38.013,34.093,38.013,59.192c0,22.684-12.19,43.842-31.584,55.721V68.831c0-4.328-3.508-7.837-7.837-7.837 s-7.837,3.509-7.837,7.837v62.037c-19.396-11.876-31.588-33.036-31.588-55.724C304.836,50.046,319.758,26.813,342.862,15.948z M361.354,226.977c0.023,0.063,0.055,0.12,0.077,0.182l-9.334,9.243v-41.214h4.635 C356.146,205.814,357.632,216.627,361.354,226.977z M359.133,179.513h-7.034v-30.896c0.079-0.036,0.161-0.061,0.24-0.097 c5.316-2.502,10.283-5.536,14.847-9.018c2.151,3.507,4.208,7.071,6.186,10.68C366.623,158.961,361.822,168.97,359.133,179.513z M331.79,195.189h4.635v41.216l-9.339-9.247c0.024-0.064,0.057-0.124,0.082-0.188C330.886,216.624,332.373,205.814,331.79,195.189 z M263.836,45.45c9.26,4.577,18.155,9.671,26.662,15.237c-0.88,4.728-1.336,9.563-1.336,14.457 c0,31.145,18.457,59.948,47.02,73.378c0.079,0.037,0.163,0.062,0.242,0.097v30.895h-7.038 c-3.553-13.938-10.784-26.947-21.347-37.404c-12.153-12.04-27.719-19.703-44.202-22.459V45.45z M93.271,107.706 c34.487-34.133,77.996-56.083,125.209-63.7c-51.505,31.914-90.133,79.919-110.287,135.509H44.164 C55.554,153.024,72.084,128.677,93.271,107.706z M25.908,268.661c0-25.382,4.185-50.124,12.203-73.473h64.945 c-6.892,23.53-10.539,48.22-10.539,73.473c0,25.253,3.646,49.943,10.539,73.473H38.111 C30.092,318.785,25.908,294.042,25.908,268.661z M93.271,429.616c-21.187-20.971-37.717-45.318-49.107-71.807h64.029 c20.158,55.597,58.802,103.599,110.317,135.513C171.287,485.708,127.763,463.757,93.271,429.616z M248.164,357.808v134.073 c-57.436-28.342-100.912-76.66-123.237-134.073L248.164,357.808L248.164,357.808z M248.164,342.134h-128.73 c-7.34-23.437-11.242-48.154-11.242-73.473c0-25.319,3.901-50.036,11.242-73.473h67.599c4.33,0,7.838-3.509,7.838-7.837 c0-4.329-3.508-7.838-7.838-7.838h-62.106c22.325-57.412,65.801-105.73,123.237-134.072v73.072 c-8.624,0.194-17.284,1.727-25.642,4.674c-2.622,0.928-5.049,2.449-7.014,4.398c-1.979,1.961-3.52,4.377-4.458,6.985 c-10.617,29.531-3.109,62.839,19.126,84.857c5.374,5.321,11.444,9.796,17.988,13.39V342.134z M241.205,208.291 c-17.92-17.747-23.968-44.602-15.404-68.419c0.153-0.426,0.41-0.825,0.741-1.156c0.34-0.336,0.745-0.589,1.2-0.749 c24.124-8.507,51.312-2.509,69.267,15.279c16.192,16.031,22.688,39.494,17.482,61.436L270.3,170.914 c-3.074-3.046-8.037-3.022-11.083,0.053c-3.045,3.075-3.022,8.037,0.054,11.083l77.154,76.413v83.669h-72.588v-102.7 c7.796,2.373,15.975,3.616,24.284,3.616c1.633,0,3.271-0.048,4.911-0.144c4.321-0.251,7.618-3.959,7.365-8.28 c-0.253-4.321-3.989-7.621-8.282-7.365C273.059,228.38,254.507,221.463,241.205,208.291z M418.729,429.616 c-34.484,34.134-77.996,56.083-125.206,63.7c45.481-28.128,81.525-69.057,103.39-118.152c1.76-3.955-0.019-8.587-3.973-10.349 c-3.952-1.761-8.587,0.018-10.348,3.972c-23.899,53.666-65.808,96.978-118.755,123.083V357.808h204 C456.446,384.297,439.917,408.645,418.729,429.616z M352.099,342.135v-83.558c0.022-0.056,0.039-0.114,0.06-0.171l75.008-74.287 c3.075-3.046,3.098-8.008,0.053-11.083c-3.046-3.074-8.008-3.099-11.083-0.053l-42.106,41.703 c-5.206-21.942,1.29-45.405,17.481-61.439c17.956-17.785,45.147-23.784,69.259-15.282c0.452,0.161,0.869,0.419,1.214,0.762 c0.329,0.326,0.582,0.718,0.735,1.148c8.562,23.813,2.516,50.668-15.402,68.418c-12.254,12.133-29.36,19.085-46.957,19.085 c-0.051,0-0.11,0.001-0.155,0c-4.321,0-7.827,3.498-7.837,7.821c-0.009,4.329,3.493,7.844,7.82,7.853c0.057,0,0.114,0,0.171,0 c0.7,0,1.398-0.034,2.098-0.052c0.89,8.466,1.353,17.029,1.353,25.663c0,19.46-2.282,38.839-6.781,57.597 c-1.01,4.209,1.584,8.44,5.794,9.449c4.209,1.011,8.439-1.584,9.449-5.792c4.786-19.954,7.213-40.564,7.213-61.254 c0-9.267-0.5-18.457-1.464-27.541c15.202-3.311,29.334-10.805,40.327-21.692c6.739-6.676,12.116-14.391,16.053-22.721 c7.685,22.901,11.692,47.122,11.692,71.955c0,25.382-4.185,50.125-12.203,73.473H352.099z"></path></g></g></svg>