<!-- icon666.com - MILLIONS vector ICONS FREE --><svg version="1.1" id="Layer_1" xmlns="http://www.w3.org/2000/svg" xmlns:xlink="http://www.w3.org/1999/xlink" x="0px" y="0px" viewBox="0 0 511.998 511.998" style="enable-background:new 0 0 511.998 511.998;" xml:space="preserve"><path style="fill:#90C666;" d="M263.438,143.908v349.139c-2.459,0.103-4.94,0.16-7.433,0.16c-2.493,0-4.975-0.057-7.433-0.16 V129.041l0,0C256.782,129.041,263.438,135.697,263.438,143.908z"></path><path style="fill:#9DDA74;" d="M252.292,119.858v16.906h-16.906c-39.474,0-74.475-19.081-96.319-48.515 c-2.749-3.72-5.306-7.605-7.632-11.64c-10.122-17.576-15.908-37.97-15.908-59.717V0h16.892c12.474,0,24.497,1.901,35.809,5.444 c4.103,1.272,8.098,2.777,11.995,4.473c14.266,6.21,27.095,15.114,37.833,26.07c3.912,3.98,7.536,8.248,10.86,12.748 C243.607,68.635,252.292,93.228,252.292,119.858z"></path><g><path style="fill:#90C666;" d="M260.991,136.764l-8.699,8.699l-62.11-62.11l-51.113,4.897c-2.749-3.72-5.306-7.605-7.632-11.64 l47.462-4.541L115.528,8.713V0h8.699l41.211,41.211l2.79-35.767c4.103,1.272,8.098,2.777,11.995,4.473l-3.337,42.743l34.987,34.987 l6.182-51.661c3.912,3.98,7.536,8.248,10.86,12.748l-5.964,49.993L260.991,136.764z"></path><path style="fill:#90C666;" d="M429.547,338.424c0,2.299-0.046,4.586-0.137,6.862c-1.578,40.655-17.154,77.731-42.039,106.538 c-3.031,3.522-6.21,6.919-9.526,10.178c-29.688,29.265-69.886,47.928-114.406,49.804c-2.459,0.103-4.94,0.16-7.433,0.16 c-2.493,0-4.975-0.057-7.433-0.16c-44.521-1.876-84.718-20.539-114.406-49.815c-3.316-3.248-6.496-6.644-9.538-10.167 c-24.885-28.807-40.461-65.883-42.039-106.538c-0.091-2.276-0.137-4.563-0.137-6.862c0-2.299,0.046-4.586,0.137-6.862 c1.578-40.655,17.154-77.731,42.039-106.538c3.042-3.522,6.21-6.919,9.526-10.178c29.688-29.276,69.886-47.94,114.418-49.815 c2.459-0.103,4.94-0.16,7.433-0.16c2.493,0,4.975,0.057,7.433,0.16c44.521,1.876,84.718,20.539,114.406,49.815 c3.316,3.259,6.496,6.656,9.526,10.178c24.885,28.807,40.461,65.883,42.039,106.538 C429.501,333.838,429.547,336.125,429.547,338.424z"></path></g><ellipse style="fill:#9DDA74;" cx="255.995" cy="338.416" rx="150.052" ry="173.542"></ellipse><g><path style="fill:#81B256;" d="M350.911,433.257c11.849-27.937,18.213-60.651,18.213-94.837c0-34.185-6.364-66.896-18.211-94.832 c12.864-4.956,24.805-10.968,35.555-17.969l0.903-0.595c-3.031-3.522-6.21-6.919-9.526-10.178 c-9.808,6.262-20.851,11.689-32.795,16.195c-2.502-4.884-5.181-9.594-8.043-14.094c-19.647-30.885-45.543-49.003-73.568-51.733 v-0.184c-1.452-0.061-2.913-0.099-4.379-0.126c-1.018-0.04-2.037-0.064-3.059-0.064c-1.022,0-2.042,0.023-3.06,0.064 c-1.463,0.026-2.921,0.065-4.369,0.126v0.183c-28.027,2.726-53.927,20.844-73.575,51.733c-2.862,4.5-5.541,9.209-8.042,14.093 c-11.945-4.506-22.99-9.932-32.801-16.193c-3.316,3.259-6.484,6.656-9.526,10.178l0.903,0.595c10.753,7,22.695,13.012,35.56,17.968 c-11.053,26.062-17.326,56.283-18.118,87.975H82.588c-0.091,2.276-0.137,4.563-0.137,6.862c0,2.299,0.046,4.586,0.137,6.862h60.385 c0.794,31.692,7.066,61.911,18.119,87.972c-12.866,4.958-24.808,10.971-35.562,17.972l-0.903,0.595 c3.042,3.522,6.221,6.919,9.538,10.167c9.809-6.257,20.851-11.681,32.792-16.185c2.501,4.882,5.178,9.589,8.04,14.088 c19.648,30.889,45.548,49.007,73.575,51.733v0.18c1.419,0.059,2.848,0.098,4.279,0.125c1.048,0.043,2.097,0.069,3.151,0.069 c1.052,0,2.101-0.026,3.148-0.069c1.435-0.026,2.867-0.065,4.289-0.125v-0.18c28.025-2.729,53.921-20.847,73.568-51.733 c2.862-4.499,5.54-9.207,8.041-14.089c11.945,4.508,22.989,9.936,32.797,16.199c3.316-3.259,6.496-6.656,9.526-10.178l-0.903-0.595 C375.717,444.228,363.776,438.215,350.911,433.257z M354.256,338.42c0,32.61-6.103,63.667-17.432,89.953 c-22.553-7.016-47.424-11.008-73.386-11.649v-71.439h68.719c3.79,0,6.862-3.072,6.862-6.862c0-3.79-3.072-6.862-6.862-6.862 h-68.719v-71.449c25.962-0.64,50.834-4.628,73.387-11.642C348.154,274.756,354.256,305.811,354.256,338.42z M324.463,224.927 c2.23,3.505,4.331,7.16,6.325,10.926c-20.838,6.256-43.789,9.894-67.349,10.529v-66.216 C286.28,182.964,307.72,198.606,324.463,224.927z M187.54,224.927c16.745-26.324,38.187-41.966,61.031-44.762v66.217 c-23.557-0.636-46.512-4.275-67.355-10.531C183.211,232.086,185.311,228.432,187.54,224.927z M175.178,248.469 c22.556,7.014,47.43,11.004,73.394,11.643v71.449h-90.72C158.645,301.465,164.647,272.904,175.178,248.469z M157.852,345.285h90.72 v71.439c-25.963,0.64-50.837,4.633-73.393,11.65C164.648,403.94,158.646,375.382,157.852,345.285z M187.54,451.914 c-2.229-3.504-4.329-7.158-6.323-10.921c20.842-6.259,43.794-9.902,67.354-10.538v66.222 C225.728,493.88,204.285,478.237,187.54,451.914z M324.463,451.914c-16.743,26.32-38.183,41.962-61.024,44.761v-66.22 c23.559,0.636,46.51,4.278,67.348,10.536C328.793,444.755,326.692,448.409,324.463,451.914z"></path><path style="fill:#81B256;" d="M429.409,331.562h-37.224c-3.79,0-6.862,3.072-6.862,6.862c0,3.79,3.072,6.862,6.862,6.862h37.224 c0.091-2.276,0.137-4.563,0.137-6.862C429.547,336.125,429.501,333.838,429.409,331.562z"></path></g></svg>