<svg width="79" height="79" viewBox="0 0 79 79" fill="none" xmlns="http://www.w3.org/2000/svg">
<path d="M57.0597 22.7311C57.0597 32.9297 48.8146 41.197 38.6435 41.197C28.4725 41.197 20.2274 32.9297 20.2274 22.7311C20.2274 21.9545 20.2766 21.1902 20.3667 20.4424C20.4528 19.7397 20.5798 19.0494 20.7438 18.3714C22.6985 10.2808 29.9723 4.26926 38.6435 4.26926C44.2618 4.26926 49.29 6.79219 52.6667 10.7656C53.1871 11.3738 53.6666 12.023 54.1051 12.6969C55.9737 15.5855 57.0597 19.033 57.0597 22.7311Z" fill="#E9AE54"/>
<path d="M29.9805 20.2493C29.9805 20.2493 22.9157 20.389 20.3668 20.4424C20.4528 19.7397 20.5799 19.0494 20.7438 18.3714C23.5386 18.3961 29.9354 18.4824 29.9764 18.7289C30.0297 19.0412 29.5584 19.4644 29.5584 19.4644C29.5584 19.4644 29.9805 20.241 29.9805 20.2493Z" fill="#EBDCBA"/>
<path d="M44.311 12.6969L45.147 12.2243L44.311 11.0697L52.6667 10.7656C53.1871 11.3738 53.6666 12.023 54.105 12.6969H44.311Z" fill="#EBDCBA"/>
<path d="M35.2587 16.2964C35.2587 15.8156 35.0005 15.3677 34.5784 15.1335C33.7711 14.6815 32.4885 14.02 32.1729 14.1597C31.7016 14.3692 29.9231 17.4099 30.8657 18.355C31.8082 19.3001 33.849 18.6714 34.4227 18.618C34.9964 18.5646 35.2587 16.9908 35.2587 16.9908V16.2923V16.2964Z" fill="#EBDCBA"/>
<path d="M38.3444 12.6928C38.3444 12.6928 37.1601 14.2665 38.6394 14.5829C39.2213 14.7062 39.7131 14.6651 40.0983 14.5706C40.6925 14.4227 41.0736 13.8474 41.0121 13.2393C40.9588 12.7051 40.7826 12.1216 40.2827 12.0682C39.3402 11.9614 38.3485 12.6969 38.3485 12.6969L38.3444 12.6928Z" fill="#EBDCBA"/>
<path d="M32.0172 23.5529C31.8737 23.6145 30.1854 25.1266 32.0172 25.8087C33.8489 26.4908 34.9472 25.9156 34.4227 24.6829C33.8981 23.4502 33.1687 23.0845 32.0172 23.557V23.5529Z" fill="#EBDCBA"/>
<path d="M44.2536 18.5481C43.8561 18.7207 43.5528 19.0617 43.4381 19.4809C43.1225 20.6355 42.7373 23.0557 45.0445 23.1338C48.077 23.2406 48.2859 19.4973 47.3967 18.8768C46.6263 18.3386 45.5772 17.977 44.2536 18.5481Z" fill="#EBDCBA"/>
<path d="M37.8977 27.2264C37.8977 27.2264 34.5292 30.4766 38.1887 31.319C41.8481 32.1613 39.8032 25.6033 37.8977 27.2264Z" fill="#EBDCBA"/>
<path d="M68.6937 47.6276L63.686 52.4557C63.2148 52.579 62.7189 52.3982 62.4362 52.0037L58.9242 47.1058H64.4032C64.5343 47.1058 64.6081 46.9579 64.5343 46.851L58.5308 38.5015H63.8131C63.9442 38.5015 64.0221 38.3495 63.9401 38.2426L57.9407 30.4602H62.596C62.723 30.4602 62.8009 30.3163 62.7271 30.2095L56.4204 20.8902C56.3548 20.7957 56.2196 20.7957 56.154 20.8902L49.8473 30.2095C49.7736 30.3163 49.8473 30.4602 49.9785 30.4602H54.6337L48.6343 38.2426C48.5524 38.3495 48.6261 38.5015 48.7614 38.5015H53.7117L47.7082 46.851C47.6303 46.9579 47.7082 47.1058 47.8393 47.1058H54.0969L49.9621 52.8748C49.8637 52.8502 49.7613 52.8297 49.6629 52.805C43.9422 51.4161 33.0827 37.3715 30.2141 33.546C29.8453 33.0529 29.12 33.0242 28.7102 33.4844L14.5805 49.374L9.64247 47.8454C9.61379 47.8372 9.5851 47.8618 9.5892 47.8947C12.6749 61.1833 24.7393 71.0942 39.1476 71.0942C53.556 71.0942 65.7596 61.0682 68.7593 47.6646C68.7675 47.6276 68.7183 47.5989 68.6896 47.6276H68.6937Z" fill="#467161"/>
<path d="M36.7585 65.506H24.3417C23.5508 65.506 22.9075 64.8609 22.9075 64.0678C22.9075 63.2748 23.5508 62.6297 24.3417 62.6297H36.7585C37.0044 62.6297 37.2093 62.4283 37.2093 62.1777V61.7585C37.2093 59.9259 38.6968 58.4302 40.5286 58.4302H54.6173C55.4082 58.4302 56.0516 59.0754 56.0516 59.8684C56.0516 60.6614 55.4082 61.3066 54.6173 61.3066H40.5286C40.2827 61.3066 40.0778 61.5079 40.0778 61.7585V62.1777C40.0778 64.0103 38.5903 65.506 36.7585 65.506Z" fill="#D3DAC7"/>
</svg>
