<?xml version="1.0" standalone="no"?>
<!DOCTYPE svg PUBLIC "-//W3C//DTD SVG 20010904//EN"
 "http://www.w3.org/TR/2001/REC-SVG-20010904/DTD/svg10.dtd">
<svg version="1.0" xmlns="http://www.w3.org/2000/svg"
 width="290.000000pt" height="289.000000pt" viewBox="0 0 290.000000 289.000000"
 preserveAspectRatio="xMidYMid meet">

<g transform="translate(0.000000,289.000000) scale(0.100000,-0.100000)"
fill="#000000" stroke="none">
<path d="M1850 1833 c-24 -37 -65 -96 -91 -130 l-49 -62 59 -3 59 -3 -60 -90
c-33 -49 -60 -94 -61 -100 -1 -5 24 -12 56 -15 l58 -5 -70 -103 c-39 -56 -71
-105 -71 -107 0 -3 32 -5 70 -5 41 0 70 -4 70 -10 0 -8 -31 -58 -86 -138 -4
-7 -91 42 -142 81 -30 23 -120 115 -202 206 -81 91 -160 177 -174 190 l-26 25
-58 -57 c-31 -31 -118 -123 -192 -205 l-135 -149 -40 12 c-22 7 -52 15 -67 19
l-27 6 25 -72 c142 -418 630 -637 1047 -470 225 91 406 288 463 505 l13 52
-65 -67 c-37 -38 -67 -68 -68 -68 -1 0 -26 29 -54 64 -58 72 -56 76 34 76 30
0 54 4 54 9 0 4 -26 42 -58 82 -31 41 -65 86 -75 102 l-17 27 65 0 c43 0 65 4
65 12 0 6 -26 45 -57 86 -97 125 -94 112 -29 112 l57 0 -76 109 c-41 61 -75
114 -75 119 0 5 -6 15 -14 21 -11 9 -22 -1 -56 -56z m-10 -928 c6 -8 10 -22 8
-32 -3 -16 -20 -18 -176 -23 -157 -5 -175 -7 -188 -24 -8 -11 -14 -29 -14 -40
0 -12 -7 -30 -16 -41 -14 -18 -29 -20 -189 -23 -114 -3 -180 0 -194 8 -23 12
-28 44 -8 57 6 4 83 8 170 8 168 0 176 3 177 51 0 60 41 71 266 73 121 1 154
-2 164 -14z"/>
</g>
</svg>
