<?xml version="1.0" encoding="UTF-8"?>
<!DOCTYPE svg PUBLIC "-//W3C//DTD SVG 1.1//EN" "http://www.w3.org/Graphics/SVG/1.1/DTD/svg11.dtd">
<svg xmlns="http://www.w3.org/2000/svg" version="1.1" width="290px" height="289px" style="shape-rendering:geometricPrecision; text-rendering:geometricPrecision; image-rendering:optimizeQuality; fill-rule:evenodd; clip-rule:evenodd" xmlns:xlink="http://www.w3.org/1999/xlink">
<g><path style="opacity:1" fill="#d3dac7" d="M -0.5,-0.5 C 96.1667,-0.5 192.833,-0.5 289.5,-0.5C 289.5,95.8333 289.5,192.167 289.5,288.5C 192.833,288.5 96.1667,288.5 -0.5,288.5C -0.5,192.167 -0.5,95.8333 -0.5,-0.5 Z"/></g>
<g><path style="opacity:1" fill="#e9ad52" d="M 180.5,73.5 C 173.825,73.3337 167.158,73.5004 160.5,74C 159.692,74.3076 159.025,74.8076 158.5,75.5C 159.641,76.4255 159.641,77.2588 158.5,78C 167.16,78.4998 175.827,78.6664 184.5,78.5C 188.557,85.2819 190.89,92.6153 191.5,100.5C 190.542,100.047 189.708,99.3805 189,98.5C 183.69,107.619 177.523,116.119 170.5,124C 174.5,124.333 178.5,124.667 182.5,125C 178.032,131.443 173.699,137.943 169.5,144.5C 159.568,149.782 148.901,152.116 137.5,151.5C 135.5,149.833 133.5,148.167 131.5,146.5C 127.911,141.406 123.745,136.739 119,132.5C 116.348,134.32 113.848,136.32 111.5,138.5C 100.221,127.68 95.2212,114.346 96.5,98.5C 104.672,98.9657 112.672,98.4657 120.5,97C 119.359,96.2588 119.359,95.4255 120.5,94.5C 119.975,93.8076 119.308,93.3076 118.5,93C 111.495,92.6666 104.495,92.8333 97.5,93.5C 102.179,75.32 113.513,63.4867 131.5,58C 150.865,54.068 167.198,59.2346 180.5,73.5 Z"/></g>
<g><path style="opacity:1" fill="#ebd9b5" d="M 180.5,73.5 C 181.833,75.1667 183.167,76.8333 184.5,78.5C 175.827,78.6664 167.16,78.4998 158.5,78C 159.641,77.2588 159.641,76.4255 158.5,75.5C 159.025,74.8076 159.692,74.3076 160.5,74C 167.158,73.5004 173.825,73.3337 180.5,73.5 Z"/></g>
<g><path style="opacity:1" fill="#fad590" d="M 143.5,76.5 C 146.833,75.8333 148.833,77.1667 149.5,80.5C 147.401,83.9845 144.901,84.3178 142,81.5C 141.387,79.5048 141.887,77.8381 143.5,76.5 Z"/></g>
<g><path style="opacity:1" fill="#fad38e" d="M 125.5,82.5 C 128.477,83.0708 131.31,84.0708 134,85.5C 135.66,91.2895 133.493,94.2895 127.5,94.5C 123.233,93.3977 121.733,90.731 123,86.5C 124.095,85.3066 124.928,83.9733 125.5,82.5 Z"/></g>
<g><path style="opacity:1" fill="#ecd8b2" d="M 96.5,98.5 C 96.6287,96.7839 96.962,95.1172 97.5,93.5C 104.495,92.8333 111.495,92.6666 118.5,93C 119.308,93.3076 119.975,93.8076 120.5,94.5C 119.359,95.4255 119.359,96.2588 120.5,97C 112.672,98.4657 104.672,98.9657 96.5,98.5 Z"/></g>
<g><path style="opacity:1" fill="#fad38e" d="M 157.5,93.5 C 160.545,93.5079 163.545,93.8413 166.5,94.5C 166.807,99.5623 164.807,103.229 160.5,105.5C 153.916,102.918 152.916,98.9181 157.5,93.5 Z"/></g>
<g><path style="opacity:1" fill="#fad48f" d="M 126.5,106.5 C 132.016,106.473 133.349,108.64 130.5,113C 128.231,113.758 126.064,113.591 124,112.5C 123.034,109.66 123.867,107.66 126.5,106.5 Z"/></g>
<g><path style="opacity:1" fill="#fad490" d="M 139.5,116.5 C 146.494,116.415 148.161,119.248 144.5,125C 142.765,125.651 141.098,125.485 139.5,124.5C 138.271,121.801 138.271,119.135 139.5,116.5 Z"/></g>
<g><path style="opacity:1" fill="#426b5d" d="M 191.5,100.5 C 195.838,108.656 200.838,116.489 206.5,124C 202.833,124.333 199.167,124.667 195.5,125C 201.236,131.212 205.902,138.046 209.5,145.5C 205.445,145.176 201.445,145.509 197.5,146.5C 202.167,153.167 206.833,159.833 211.5,166.5C 207.541,167.327 203.541,167.827 199.5,168C 199.043,168.414 198.709,168.914 198.5,169.5C 201.476,173.644 204.643,177.644 208,181.5C 212,177.5 216,173.5 220,169.5C 216.686,187.283 207.853,201.783 193.5,213C 159.333,235.66 125.667,234.993 92.5,211C 79.7815,199.895 71.1148,186.228 66.5,170C 71.0877,170.977 75.7544,171.643 80.5,172C 91.039,160.963 101.372,149.797 111.5,138.5C 113.848,136.32 116.348,134.32 119,132.5C 123.745,136.739 127.911,141.406 131.5,146.5C 133.5,148.167 135.5,149.833 137.5,151.5C 146.345,165.011 158.012,175.344 172.5,182.5C 175.253,177.992 178.253,173.659 181.5,169.5C 176.88,168.507 172.214,168.173 167.5,168.5C 167.351,167.448 167.517,166.448 168,165.5C 172.623,159.087 177.123,152.587 181.5,146C 177.312,145.824 173.312,145.324 169.5,144.5C 173.699,137.943 178.032,131.443 182.5,125C 178.5,124.667 174.5,124.333 170.5,124C 177.523,116.119 183.69,107.619 189,98.5C 189.708,99.3805 190.542,100.047 191.5,100.5 Z"/></g>
<g><path style="opacity:1" fill="#d5dbca" d="M 169.5,144.5 C 173.312,145.324 177.312,145.824 181.5,146C 177.123,152.587 172.623,159.087 168,165.5C 167.517,166.448 167.351,167.448 167.5,168.5C 172.214,168.173 176.88,168.507 181.5,169.5C 178.253,173.659 175.253,177.992 172.5,182.5C 158.012,175.344 146.345,165.011 137.5,151.5C 148.901,152.116 159.568,149.782 169.5,144.5 Z"/></g>
<g><path style="opacity:1" fill="#457060" d="M 131.5,146.5 C 132.817,148.482 132.817,150.482 131.5,152.5C 133.409,154.257 134.742,156.424 135.5,159C 134.38,161.278 135.213,162.778 138,163.5C 138.333,162.833 138.667,162.167 139,161.5C 140,163.167 141.333,164.5 143,165.5C 143.333,165.167 143.667,164.833 144,164.5C 144.667,165.833 144.667,167.167 144,168.5C 143.444,166.405 142.944,166.238 142.5,168C 144.748,172.315 145.414,176.815 144.5,181.5C 145.873,181.343 147.207,181.51 148.5,182C 149.376,183.586 150.376,185.086 151.5,186.5C 152.956,184.556 153.956,182.89 154.5,181.5C 155.251,182.376 155.751,183.376 156,184.5C 156.75,183.874 157.584,183.374 158.5,183C 157.549,182.282 157.383,181.449 158,180.5C 160.304,182.068 162.804,183.235 165.5,184C 164.5,184.333 163.5,184.667 162.5,185C 164.112,185.72 165.612,185.554 167,184.5C 167.667,185.833 168.333,187.167 169,188.5C 169.483,187.552 169.649,186.552 169.5,185.5C 173.096,185.632 176.762,185.799 180.5,186C 182.394,184.921 182.727,183.587 181.5,182C 184.374,180.701 186.207,178.535 187,175.5C 187.333,176.833 187.667,178.167 188,179.5C 189.487,178.747 189.654,177.914 188.5,177C 189.416,176.626 190.25,176.126 191,175.5C 191.677,177.689 192.844,178.022 194.5,176.5C 195.795,177.098 197.128,177.598 198.5,178C 194.869,178.206 194.535,179.373 197.5,181.5C 198.396,180.494 199.062,180.494 199.5,181.5C 198.624,182.251 197.624,182.751 196.5,183C 197.833,183.667 197.833,184.333 196.5,185C 200.645,186.273 204.812,186.106 209,184.5C 209.692,185.025 210.192,185.692 210.5,186.5C 209.695,188.472 208.361,189.972 206.5,191C 207.517,192.049 207.684,193.216 207,194.5C 206.309,192.109 205.309,192.109 204,194.5C 202.396,193.351 200.73,193.351 199,194.5C 197.454,196.85 196.12,199.184 195,201.5C 194.749,199.567 194.249,197.734 193.5,196C 194.784,194.703 194.617,193.536 193,192.5C 191.383,193.536 191.216,194.703 192.5,196C 189.833,196.667 187.167,196.667 184.5,196C 185.833,195 185.833,194 184.5,193C 182.782,192.654 181.115,192.154 179.5,191.5C 177.043,191.551 174.543,191.884 172,192.5C 169.678,191.842 167.512,190.842 165.5,189.5C 164.833,189.833 164.167,190.167 163.5,190.5C 164.506,191.396 164.506,192.062 163.5,192.5C 161.833,191.167 160.167,191.167 158.5,192.5C 156.275,188.968 154.442,188.968 153,192.5C 151.374,192.146 149.541,192.146 147.5,192.5C 147.688,190.897 147.188,189.563 146,188.5C 145.383,189.449 145.549,190.282 146.5,191C 144.422,193.134 142.588,192.968 141,190.5C 140.009,191.939 138.676,192.939 137,193.5C 136.383,194.449 136.549,195.282 137.5,196C 134.195,196.867 132.195,198.534 131.5,201C 130.101,201.595 128.768,201.428 127.5,200.5C 126.252,201.04 125.085,201.707 124,202.5C 123.667,200.5 123.333,198.5 123,196.5C 122.577,197.956 121.744,198.456 120.5,198C 120.833,197.667 121.167,197.333 121.5,197C 120.809,195.933 120.309,194.766 120,193.5C 118.951,192.483 117.784,192.316 116.5,193C 118.133,199.681 117.3,199.848 114,193.5C 112.14,196.978 112.64,200.145 115.5,203C 114.256,203.456 113.423,202.956 113,201.5C 111.284,202.552 110.284,201.886 110,199.5C 108.333,200.833 106.667,200.833 105,199.5C 104.066,204.173 102.566,204.506 100.5,200.5C 101.093,198.618 101.76,196.785 102.5,195C 102.816,190.608 102.483,186.442 101.5,182.5C 99.8561,182.286 98.3561,182.62 97,183.5C 95.6896,181.868 95.1896,180.201 95.5,178.5C 94.7132,179.242 94.0465,180.075 93.5,181C 94.5089,183.172 96.1756,184.338 98.5,184.5C 98.2606,186.467 98.5939,188.301 99.5,190C 97.2858,190.46 96.6192,189.793 97.5,188C 96.1667,187.333 94.8333,187.333 93.5,188C 94.7726,190.193 95.106,192.36 94.5,194.5C 95.6313,195.604 96.4646,195.271 97,193.5C 97.8333,194.333 98.6667,195.167 99.5,196C 98.364,197.53 97.364,198.863 96.5,200C 100.272,200.611 100.272,201.611 96.5,203C 98.8633,203.589 99.8633,205.089 99.5,207.5C 96.4645,205.821 93.4645,204.821 90.5,204.5C 90.2743,202.264 89.4409,199.93 88,197.5C 87.5172,198.448 87.3505,199.448 87.5,200.5C 84.001,200.741 83.6677,199.908 86.5,198C 86.0426,197.586 85.7093,197.086 85.5,196.5C 89.1445,194.921 89.3112,192.921 86,190.5C 85.3162,191.784 85.4829,192.951 86.5,194C 85.354,194.645 84.354,195.478 83.5,196.5C 83.6869,195.183 83.0202,193.85 81.5,192.5C 82.6405,191.575 82.6405,190.741 81.5,190C 83.3008,189.683 83.6341,189.016 82.5,188C 84.3031,187.363 85.6364,186.197 86.5,184.5C 84.7687,182.655 83.102,180.822 81.5,179C 83.6506,176.635 86.3172,175.969 89.5,177C 90.1258,177.75 90.6258,178.584 91,179.5C 91.9734,177.608 92.6401,175.608 93,173.5C 95.3017,178.913 96.4683,178.58 96.5,172.5C 91.9316,172.011 91.265,170.011 94.5,166.5C 95.3957,167.506 96.0623,167.506 96.5,166.5C 95.624,165.749 94.624,165.249 93.5,165C 95.1293,164.415 96.6293,163.581 98,162.5C 98.5,162.667 99,162.833 99.5,163C 99.3349,164.117 99.0016,165.284 98.5,166.5C 99.0016,167.521 99.6683,167.688 100.5,167C 103.705,164.446 105.705,161.113 106.5,157C 105.728,155.779 104.728,154.779 103.5,154C 105.481,153.395 105.815,152.395 104.5,151C 105,150.5 105.5,150 106,149.5C 107.011,150.337 108.178,150.67 109.5,150.5C 109.343,149.127 109.51,147.793 110,146.5C 110.413,149.232 111.08,151.899 112,154.5C 113.833,153.333 115.333,151.833 116.5,150C 115.552,149.517 114.552,149.351 113.5,149.5C 113.649,150.552 113.483,151.552 113,152.5C 110.92,147.636 112.087,143.636 116.5,140.5C 115.984,141.758 116.65,142.758 118.5,143.5C 118.439,141.677 119.606,140.344 122,139.5C 125.596,141.265 128.763,143.598 131.5,146.5 Z"/></g>
<g><path style="opacity:1" fill="#d5dcca" d="M 150.5,196.5 C 161.172,196.333 171.839,196.5 182.5,197C 184.602,198.733 184.935,200.733 183.5,203C 172.167,203.333 160.833,203.667 149.5,204C 147.032,206.228 145.865,209.062 146,212.5C 144.442,214.768 142.276,215.934 139.5,216C 128.833,216.667 118.167,216.667 107.5,216C 104.527,214.776 103.86,212.776 105.5,210C 116.891,209.91 128.224,209.243 139.5,208C 139.677,200.659 143.343,196.826 150.5,196.5 Z"/></g>
</svg>
