<svg width="20" height="20" viewBox="0 0 20 20" fill="none" xmlns="http://www.w3.org/2000/svg">
<path d="M17.9414 16.2067C17.9414 16.2067 16.8793 17.2499 16.619 17.5557C16.195 18.0082 15.6954 18.2218 15.0405 18.2218C14.9776 18.2218 14.9104 18.2218 14.8474 18.2176C13.6006 18.138 12.4419 17.6521 11.5729 17.2373C9.19683 16.0894 7.1104 14.4597 5.3766 12.3943C3.94506 10.6724 2.98791 9.0804 2.354 7.37109C1.96358 6.32791 1.82085 5.51515 1.88382 4.74848C1.9258 4.25831 2.11471 3.85193 2.46315 3.5042L3.89469 2.07559C4.10039 1.88287 4.31869 1.77814 4.53279 1.77814C4.79727 1.77814 5.01137 1.93734 5.14571 2.0714C5.1499 2.07559 5.1541 2.07978 5.1583 2.08397C5.41438 2.32277 5.65787 2.56995 5.91395 2.83389C6.04409 2.96795 6.17843 3.10201 6.31277 3.24027L7.45884 4.38399C7.90383 4.82808 7.90383 5.23865 7.45884 5.68273C7.33709 5.80423 7.21955 5.92572 7.0978 6.04303C6.74517 6.40332 7.02218 6.12687 6.65695 6.45365C6.64856 6.46203 6.64016 6.46622 6.63596 6.4746C6.27493 6.83489 6.3421 7.18681 6.41766 7.42561C6.42186 7.43818 6.42606 7.45074 6.43026 7.46331C6.72832 8.1839 7.14812 8.8626 7.78623 9.67117L7.79043 9.67536C8.94909 11.0998 10.1707 12.21 11.5183 13.0605C11.6904 13.1694 11.8667 13.2574 12.0347 13.3412C12.1858 13.4166 12.3285 13.4878 12.4503 13.5632C12.4671 13.5716 12.4839 13.5841 12.5006 13.5925C12.6434 13.6637 12.7777 13.6973 12.9163 13.6973C13.2647 13.6973 13.483 13.4794 13.5544 13.4082L14.3772 12.587C14.52 12.4445 14.7467 12.2728 15.0111 12.2728C15.2714 12.2728 15.4855 12.4362 15.6157 12.5786C15.6199 12.5828 15.6199 12.5828 15.6241 12.587L17.9372 14.8954C18.3696 15.3227 17.9414 16.2067 17.9414 16.2067Z" stroke="white" stroke-width="2" stroke-linecap="round" stroke-linejoin="round"/>
</svg>
