<svg width="28" height="28" viewBox="0 0 28 28" fill="none" xmlns="http://www.w3.org/2000/svg">
<g clip-path="url(#clip0_183_305)">
<path fill-rule="evenodd" clip-rule="evenodd" d="M28 14C28 21.732 21.732 28 14 28C6.26801 28 0 21.732 0 14C0 6.26801 6.26801 0 14 0C21.732 0 28 6.26801 28 14ZM14.5018 10.3354C13.1401 10.9018 10.4186 12.0741 6.33735 13.8522C5.67461 14.1158 5.32744 14.3736 5.29584 14.6257C5.24243 15.0517 5.77597 15.2195 6.50253 15.448C6.60136 15.4791 6.70376 15.5112 6.80874 15.5454C7.52355 15.7777 8.48511 16.0496 8.98498 16.0604C9.43841 16.0702 9.94449 15.8832 10.5032 15.4996C14.3165 12.9255 16.2849 11.6244 16.4085 11.5964C16.4957 11.5766 16.6165 11.5517 16.6984 11.6245C16.7802 11.6972 16.7722 11.835 16.7635 11.872C16.7107 12.0973 14.6163 14.0444 13.5324 15.0521C13.1946 15.3662 12.9549 15.589 12.9059 15.6399C12.7961 15.7539 12.6843 15.8617 12.5768 15.9654C11.9127 16.6055 11.4147 17.0856 12.6044 17.8696C13.176 18.2463 13.6335 18.5578 14.0899 18.8686C14.5883 19.2081 15.0855 19.5466 15.7287 19.9683C15.8926 20.0757 16.0491 20.1873 16.2015 20.2959C16.7816 20.7095 17.3027 21.081 17.9465 21.0217C18.3206 20.9873 18.707 20.6355 18.9033 19.5864C19.3671 17.107 20.2787 11.7349 20.4894 9.52114C20.5079 9.32718 20.4846 9.07897 20.466 8.97C20.4473 8.86104 20.4084 8.70579 20.2667 8.59087C20.099 8.45476 19.84 8.42606 19.7242 8.4281C19.1977 8.43737 18.3898 8.71829 14.5018 10.3354Z" fill="white"/>
</g>
<defs>
<clipPath id="clip0_183_305">
<rect width="28" height="28" fill="white"/>
</clipPath>
</defs>
</svg>
